<svg xmlns="http://www.w3.org/2000/svg" xmlns:xlink="http://www.w3.org/1999/xlink" width="32" height="32" viewBox="0 0 32 32">
    <defs>
        <path id="a" d="M.016 0H21.07v26H.016z"/>
        <path id="c" d="M.016 0H21.07v26H.016z"/>
        <path id="e" d="M0 0h21.054v26H0z"/>
        <path id="g" d="M0 0h2.943v26H0z"/>
        <path id="i" d="M0 26h25.488V0H0z"/>
    </defs>
    <g fill="none" fill-rule="evenodd" transform="rotate(15 3.106 25.894)">
        <g transform="translate(4.418)">
            <mask id="b" fill="#fff">
                <use xlink:href="#a"/>
            </mask>
            <path fill="#F18290" d="M19.654 26H1.433a1.416 1.416 0 0 1-1.417-1.416V1.416C.016.634.651 0 1.433 0h18.221c.782 0 1.416.634 1.416 1.416v23.168c0 .782-.634 1.416-1.416 1.416" mask="url(#b)"/>
        </g>
        <g transform="translate(4.418)">
            <mask id="d" fill="#fff">
                <use xlink:href="#c"/>
            </mask>
            <path fill="#000" d="M19.654 26H1.433a1.416 1.416 0 0 1-1.417-1.416V1.416C.016.634.651 0 1.433 0h18.221c.782 0 1.416.634 1.416 1.416v23.168c0 .782-.634 1.416-1.416 1.416" mask="url(#d)" opacity=".23"/>
        </g>
        <path fill="#F8D9B9" d="M22.807 23.929H5.682V2.07h17.125c.317 0 .574.257.574.574v20.71a.574.574 0 0 1-.574.574"/>
        <mask id="f" fill="#fff">
            <use xlink:href="#e"/>
        </mask>
        <path fill="#F18290" d="M19.638 26H1.416A1.416 1.416 0 0 1 0 24.584V1.416C0 .634.634 0 1.416 0h18.222c.782 0 1.416.634 1.416 1.416v23.168c0 .782-.634 1.416-1.416 1.416" mask="url(#f)"/>
        <mask id="h" fill="#fff">
            <use xlink:href="#g"/>
        </mask>
        <path fill="#5D6671" d="M2.943 0H1.416C.634 0 0 .634 0 1.416v23.168C0 25.366.634 26 1.416 26h1.527V0z" mask="url(#h)"/>
        <path fill="#FFF" d="M15.27 7.568a2.442 2.442 0 0 0-.724.05.55.55 0 0 1-.565-.213 2.432 2.432 0 0 0-1.982-1.02c-.818 0-1.54.402-1.982 1.02a.55.55 0 0 1-.566.213 2.443 2.443 0 0 0-.723-.05 2.445 2.445 0 0 0-2.235 2.268 2.437 2.437 0 0 0 2.075 2.571c.205.03.357.205.357.412v3.415c0 .218.176.394.394.394h5.36a.394.394 0 0 0 .394-.394V12.82c0-.207.152-.382.357-.412a2.437 2.437 0 0 0 2.074-2.57 2.445 2.445 0 0 0-2.235-2.27"/>
        <mask id="j" fill="#fff">
            <use xlink:href="#i"/>
        </mask>
        <path fill="#D6D8DB" d="M8.925 15.334h6.148v-.762H8.925z" mask="url(#j)"/>
        <path fill="#F8D662" d="M17.59 4.023l-1.292-.6a.619.619 0 0 0-.52 0l-1.293.6a.46.46 0 0 1-.655-.418V0h4.415v3.605a.46.46 0 0 1-.654.418" mask="url(#j)"/>
        <path fill="#000" d="M21.652 23.929h.762V2.071h-.762z" mask="url(#j)" opacity=".223"/>
        <path fill="#FFF" d="M7.995 19.861c.816 0 1.477.527 1.477 1.177s-.661 1.176-1.477 1.176c-.816 0-1.477-.527-1.477-1.176 0-.65.661-1.177 1.477-1.177M16.002 19.861c.816 0 1.478.527 1.478 1.177s-.662 1.176-1.478 1.176-1.477-.527-1.477-1.176c0-.65.661-1.177 1.477-1.177" mask="url(#j)"/>
        <path fill="#5D6671" d="M9.56 20.138a.38.38 0 0 1-.382-.38.323.323 0 0 0-.644 0 .38.38 0 0 1-.762 0 1.085 1.085 0 0 1 2.168 0c0 .21-.17.38-.38.38M15.845 20.138a.38.38 0 0 1-.381-.38.323.323 0 0 0-.645 0 .38.38 0 0 1-.762 0 1.085 1.085 0 0 1 2.168 0c0 .21-.17.38-.38.38M11.999 21.3a1.37 1.37 0 0 1-1.033-.47.38.38 0 0 1 .574-.501.609.609 0 0 0 .917 0 .38.38 0 1 1 .575.5 1.37 1.37 0 0 1-1.033.471" mask="url(#j)"/>
        <path fill="#000" d="M1.416 0C.634 0 0 .634 0 1.416v23.168C0 25.366.634 26 1.416 26h9.058C4.462 22.631 6.157 4.225 6.372 0H1.416z" mask="url(#j)" opacity=".104"/>
        <path fill="#7CD9D2" d="M22.858 8.33h-1.804V4.44h1.804c.578 0 1.047.468 1.047 1.046v1.797c0 .578-.469 1.046-1.047 1.046" mask="url(#j)"/>
        <path fill="#000" d="M22.007 4.44h-.953v3.89h1.643c-.827-1.19-.676-2.93-.69-3.89" mask="url(#j)" opacity=".223"/>
        <path fill="#C3E9F1" d="M22.858 13.893h-1.804v-3.89h1.804c.578 0 1.047.469 1.047 1.046v1.798c0 .578-.469 1.046-1.047 1.046" mask="url(#j)"/>
        <path fill="#C3E9F1" d="M22.858 13.893h-1.804v-3.89h1.804c.578 0 1.047.469 1.047 1.046v1.798c0 .578-.469 1.046-1.047 1.046" mask="url(#j)"/>
        <path fill="#000" d="M22.007 10.003h-.953v3.89h1.643c-.827-1.19-.676-2.929-.69-3.89" mask="url(#j)" opacity=".223"/>
    </g>
</svg>
