<svg xmlns="http://www.w3.org/2000/svg" xmlns:xlink="http://www.w3.org/1999/xlink" width="26" height="20" viewBox="0 0 26 20">
    <defs>
        <path id="a" d="M.003.003h18.725v19.3H.003z"/>
        <path id="c" d="M.003.003h6.773v19.3H.003z"/>
        <path id="e" d="M0 .018h12.145v12.145H0z"/>
    </defs>
    <g fill="none" fill-rule="evenodd">
        <g transform="translate(7.328 .048)">
            <mask id="b" fill="#fff">
                <use xlink:href="#a"/>
            </mask>
            <path fill="#92D2E7" d="M14.209 19.302H4.522a1.25 1.25 0 0 1-1.227-1.011L.026 1.487C-.124.718.466.003 1.25.003H17.48c.784 0 1.373.715 1.223 1.484l-3.269 16.804a1.25 1.25 0 0 1-1.226 1.011" mask="url(#b)"/>
        </g>
        <path fill="#F3F3F3" d="M10.196 16.141l.427 2.198a1.25 1.25 0 0 0 1.227 1.011h9.687a1.25 1.25 0 0 0 1.227-1.011l.427-2.198H10.196z"/>
        <path fill="#EEEDED" d="M7.888 4.28l2.308 11.861H23.19L25.5 4.281z"/>
        <path fill="#485458" d="M13.066 8.433a.382.382 0 0 1-.382-.381V7.4a.382.382 0 0 1 .764 0v.65c0 .211-.171.382-.382.382M20.908 8.433a.382.382 0 0 1-.382-.381V7.4a.382.382 0 1 1 .763 0v.65c0 .211-.17.382-.381.382M18.02 8.55c0 .62-.513 1.12-1.138 1.098-.595-.022-1.059-.529-1.059-1.125v-.772a.3.3 0 0 1 .3-.3h1.598a.3.3 0 0 1 .3.3v.799z"/>
        <g opacity=".153" transform="translate(7.328 .048)">
            <mask id="d" fill="#fff">
                <use xlink:href="#c"/>
            </mask>
            <path fill="#000" d="M5.549 18.291L2.279 1.487C2.13.718 2.72.003 3.504.003H1.25C.466.003-.123.718.026 1.487l3.27 16.804a1.25 1.25 0 0 0 1.226 1.011h2.254a1.25 1.25 0 0 1-1.227-1.011" mask="url(#d)"/>
        </g>
        <path fill="#FFF" d="M22.778 9.33a.382.382 0 0 1-.375-.455l.202-1.041a.382.382 0 0 1 .75.146l-.203 1.04a.382.382 0 0 1-.374.31M23.31 6.595a.383.383 0 0 1-.375-.455l.682-3.507a.382.382 0 0 1 .75.146l-.683 3.507a.382.382 0 0 1-.374.309"/>
        <g transform="translate(0 7.834)">
            <mask id="f" fill="#fff">
                <use xlink:href="#e"/>
            </mask>
            <path fill="#CFA08F" d="M6.072.018a6.072 6.072 0 1 1 0 12.145 6.072 6.072 0 0 1 0-12.145" mask="url(#f)"/>
        </g>
        <g fill="#000" opacity=".208">
            <path d="M2.84 14.172a.393.393 0 1 1 0 .786.393.393 0 0 1 0-.786M4.639 8.937a.393.393 0 1 1 0 .786.393.393 0 0 1 0-.786M5.75 12.55a.393.393 0 1 1 0 .786.393.393 0 0 1 0-.785M6.938 17.746a.393.393 0 1 1 0 .785.393.393 0 0 1 0-.785M10.813 12.815a.393.393 0 1 1 0 .785.393.393 0 0 1 0-.785"/>
        </g>
        <path fill="#000" d="M6.588 19.43a6.072 6.072 0 0 1-4.74-9.866 6.072 6.072 0 1 0 8.966 8.156 6.052 6.052 0 0 1-4.226 1.71" opacity=".212"/>
        <path fill="#AA715F" d="M8.575 12.161c1.238-.24 1.904-.966 1.904-2.183 0-1.217-.786-1.64-1.96-1.96-1.527-.416-2.447.743-2.447 1.96s1.308 2.415 2.503 2.183"/>
        <path fill="#000" d="M6.47 9.58c0-.484.147-.96.418-1.33-.525.378-.816 1.044-.816 1.728 0 1.217 1.308 2.415 2.503 2.183.69-.134 1.203-.42 1.521-.857-.295.218-.67.371-1.123.459-1.195.232-2.503-.966-2.503-2.183z" opacity=".207"/>
        <path fill="#AA715F" d="M.22 11.905c0 1.074 1.094 1.698 1.918 1.463 1.033-.295 1.796-.488 1.796-1.562s-.989-2.096-2.065-1.802c-1.036.284-1.649.827-1.649 1.9"/>
        <path fill="#000" d="M2.52 12.987c-.825.235-1.918-.39-1.918-1.464 0-.45.108-.806.309-1.09-.444.324-.69.791-.69 1.472 0 1.074 1.093 1.698 1.917 1.463.743-.212 1.346-.372 1.627-.844-.317.203-.75.321-1.246.463" opacity=".178"/>
        <path fill="#AA715F" d="M1.55 17.568c.227 1.061.779 1.847 1.853 1.847 1.074 0 1.79-.631 1.936-1.695.142-1.033-.598-1.73-1.945-1.945-1.06-.17-2.068.743-1.844 1.793"/>
        <path fill="#000" d="M3.723 19.095c-1.074 0-1.626-.786-1.853-1.846-.092-.43.023-.836.262-1.155-.444.336-.708.883-.582 1.474.227 1.061.779 1.847 1.853 1.847.673 0 1.206-.248 1.545-.695-.32.243-.735.375-1.225.375" opacity=".15"/>
        <path fill="#AA715F" d="M7.19 15.8c.234.843.77 1.544 1.669 1.544s1.344-.677 1.585-1.543c.236-.846-.768-1.79-1.829-1.615-.887.146-1.667.749-1.426 1.615"/>
        <path fill="#000" d="M9.19 17.013c-.899 0-1.435-.701-1.67-1.543a1.04 1.04 0 0 1 .146-.905c-.396.288-.622.714-.477 1.236.235.842.771 1.543 1.67 1.543.517 0 .884-.225 1.148-.58-.22.158-.488.249-.817.249" opacity=".144"/>
    </g>
</svg>
