<svg xmlns="http://www.w3.org/2000/svg" xmlns:xlink="http://www.w3.org/1999/xlink" width="26" height="15" viewBox="0 0 26 15">
    <defs>
        <path id="a" d="M0 0h20.878v12.93H0z"/>
        <path id="c" d="M.04.04h12.838v6.13H.04z"/>
        <path id="e" d="M.032.033h8.215v12.391H.032z"/>
        <path id="g" d="M.022 0h23.439v12.93H.022z"/>
        <path id="i" d="M.022.031h14.404v12.797H.022z"/>
    </defs>
    <g fill="none" fill-rule="evenodd">
        <g transform="translate(0 2.03)">
            <mask id="b" fill="#fff">
                <use xlink:href="#a"/>
            </mask>
            <path fill="#EFD176" d="M20.878 10.382C20.878 4.648 16.204 0 10.438 0 4.675 0 0 4.648 0 10.382a2.554 2.554 0 0 0 2.561 2.547h18.317v-2.547z" mask="url(#b)"/>
        </g>
        <g transform="translate(7.21 .01)">
            <mask id="d" fill="#fff">
                <use xlink:href="#c"/>
            </mask>
            <path fill="#89D47F" d="M1.615 6.17L.135 2.598C-.242 1.693.56.74 1.521.948l1.752.377c.35.076.718-.006 1.003-.224L5.334.292a1.225 1.225 0 0 1 1.831.41l.37.718c.33.64 1.141.857 1.748.468L10.868.873c.799-.512 1.854.04 1.882.985l.128 4.312H1.615z" mask="url(#d)"/>
        </g>
        <path fill="#5EC783" d="M11.896.798l-.409.313c-.285.218-.651.3-1.002.224L8.733.958c-.962-.207-1.763.745-1.388 1.65l1.48 3.572h4.779c-1.2-1.423-1.854-3.6-1.708-5.382"/>
        <path fill="#E1B89A" d="M10.384 3.403a4.075 4.075 0 0 0-5.74 0 4.022 4.022 0 0 0-.908 4.331 4.021 4.021 0 0 0-1.572 3.189c0 2.23 1.818 4.037 4.06 4.037 2.241 0 4.058-1.808 4.058-4.037 0-.521-.1-1.019-.28-1.476a4.022 4.022 0 0 0 .383-6.044"/>
        <g transform="translate(2.133 2.536)">
            <mask id="f" fill="#fff">
                <use xlink:href="#e"/>
            </mask>
            <path fill="#D2996F" d="M8.15 8.387c0-.52-.1-1.018-.281-1.476.13-.1.257-.21.378-.33-2.505-.71-5.613-3.13-4.515-6.548a4.048 4.048 0 0 0-1.22.835 4.022 4.022 0 0 0-.909 4.33 4.021 4.021 0 0 0-1.571 3.19c0 2.229 1.817 4.036 4.059 4.036 2.241 0 4.059-1.807 4.059-4.037" mask="url(#f)"/>
        </g>
        <g transform="translate(2.54 2.03)">
            <mask id="h" fill="#fff">
                <use xlink:href="#g"/>
            </mask>
            <path fill="#F7EF87" d="M20.9 12.93a2.554 2.554 0 0 0 2.561-2.548C23.461 4.648 18.787 0 13.022 0S2.583 4.648 2.583 10.382A2.554 2.554 0 0 1 .022 12.93H20.9z" mask="url(#h)"/>
        </g>
        <g transform="translate(2.54 2.131)">
            <mask id="j" fill="#fff">
                <use xlink:href="#i"/>
            </mask>
            <path fill="#EFD176" d="M11.357.031c-4.974.793-8.774 5.08-8.774 10.25a2.554 2.554 0 0 1-2.561 2.547h14.404C11.414 9.95 9.96 3.692 11.357.031" mask="url(#j)"/>
        </g>
        <path fill="#EDA1AB" d="M13.523 8.446c0-.808-.827-1.464-1.848-1.464-1.02 0-1.847.655-1.847 1.464 0 .808.827 1.463 1.847 1.463s1.848-.655 1.848-1.463M23.538 8.446c0-.808-.827-1.464-1.847-1.464s-1.848.655-1.848 1.464c0 .808.827 1.463 1.848 1.463 1.02 0 1.847-.655 1.847-1.463"/>
        <path fill="#4E5660" d="M13.632 7.232a.38.38 0 0 1-.381-.379.498.498 0 0 0-.997 0 .38.38 0 0 1-.381.379.38.38 0 0 1-.381-.379c0-.691.565-1.253 1.26-1.253.695 0 1.26.562 1.26 1.253a.38.38 0 0 1-.38.379M21.493 7.232a.38.38 0 0 1-.38-.379.498.498 0 0 0-.998 0 .38.38 0 0 1-.38.379.38.38 0 0 1-.382-.379c0-.691.566-1.253 1.26-1.253.696 0 1.261.562 1.261 1.253a.38.38 0 0 1-.38.379M16.683 8.677c-.468 0-.912-.201-1.22-.553a.377.377 0 0 1 .037-.534.382.382 0 0 1 .537.037.859.859 0 0 0 1.292 0 .382.382 0 0 1 .537-.037.377.377 0 0 1 .037.534 1.622 1.622 0 0 1-1.22.553"/>
        <path fill="#EFD176" d="M19.915 13.579a.377.377 0 0 1-.27-.647l1.398-1.39a.382.382 0 0 1 .539 0 .377.377 0 0 1 0 .537l-1.397 1.39a.38.38 0 0 1-.27.11M15.985 13.579a.377.377 0 0 1-.27-.647l1.397-1.39a.383.383 0 0 1 .539 0 .377.377 0 0 1 0 .537l-1.397 1.39a.381.381 0 0 1-.27.11"/>
        <path fill="#F7EF87" d="M12.054 13.579a.377.377 0 0 1-.27-.647l1.397-1.39a.383.383 0 0 1 .54 0 .377.377 0 0 1 0 .537l-1.398 1.39a.381.381 0 0 1-.27.11"/>
        <path fill="#EFD176" d="M17.78 4.255a.41.41 0 0 0-.808.133.41.41 0 0 0 .809-.133"/>
        <path fill="#F7EF87" d="M8.779 11.113a.409.409 0 0 1-.41.408.409.409 0 1 1 0-.816c.226 0 .41.183.41.408"/>
        <path fill="#EFD176" d="M24.487 12.439a.41.41 0 0 0-.81.132.41.41 0 0 0 .81-.132"/>
    </g>
</svg>
