<svg xmlns="http://www.w3.org/2000/svg" xmlns:xlink="http://www.w3.org/1999/xlink" width="51" height="40" viewBox="0 0 51 40">
    <defs>
        <path id="a" d="M.048.085h26.548v13.362H.048z"/>
        <path id="c" d="M0 .025h36.558V10.52H0z"/>
    </defs>
    <g fill="none" fill-rule="evenodd">
        <g transform="translate(24.404 .014)">
            <mask id="b" fill="#fff">
                <use xlink:href="#a"/>
            </mask>
            <path fill="#7CB777" d="M26.226 6.654c-1.097-.626-3.267-1.364-5.695.528l2.273-4.66a.733.733 0 0 0-.5-1.038c-1.539-.342-4.717-.583-6.489 2.597L13.963.456a.739.739 0 0 0-1.282 0l-1.852 3.625C9.057.9 5.879 1.14 4.34 1.484a.734.734 0 0 0-.5 1.038l2.273 4.66C3.685 5.29 1.515 6.028.417 6.654a.733.733 0 0 0-.164 1.144l3.295 3.434 9.774 2.215 9.775-2.215 3.294-3.434a.733.733 0 0 0-.165-1.144" mask="url(#b)"/>
        </g>
        <path fill="#34915D" d="M27.952 11.246l9.774 2.215 9.775-2.215 2.452-2.556H25.5z"/>
        <path fill="#FADC60" d="M47.5 11.246H27.953c-1.839 3.885-2.944 8.882-2.944 14.334 0 4.34.7 8.39 1.912 11.822a3.77 3.77 0 0 0 3.556 2.513h14.5a3.77 3.77 0 0 0 3.556-2.513c1.213-3.432 1.913-7.482 1.913-11.821 0-5.453-1.106-10.45-2.944-14.335"/>
        <path fill="#F2C42C" d="M26.057 16.66c-.675 2.733-1.05 5.75-1.05 8.92 0 4.34.7 8.39 1.913 11.822a3.77 3.77 0 0 0 3.524 2.512 29.981 29.981 0 0 0 6.784-4.146 5.116 5.116 0 0 0 1.889-3.706 5.111 5.111 0 0 0-1.496-3.88L26.057 16.66z"/>
        <path fill="#EFEDEE" d="M33.447 27.64l-3.775-.944H7.323l-4.212.943-1.786 1.78.817 3.06 9.988 4.666h13.235l9.364-4.603.504-3.123z"/>
        <path fill="#3A484A" d="M31.61 21.366a.768.768 0 0 1-.769-.767v-1.103c0-.424.345-.767.77-.767.425 0 .77.343.77.767v1.103a.768.768 0 0 1-.77.767M43.841 21.366a.768.768 0 0 1-.77-.767v-1.103c0-.424.345-.767.77-.767.426 0 .77.343.77.767v1.103a.768.768 0 0 1-.77.767M37.726 21.954a2.77 2.77 0 0 1-2.089-.927.765.765 0 0 1 .073-1.083.772.772 0 0 1 1.086.073c.225.256.564.403.93.403.367 0 .705-.147.93-.403a.771.771 0 0 1 1.086-.073c.32.28.353.764.073 1.082a2.77 2.77 0 0 1-2.089.928"/>
        <g transform="translate(0 29.394)">
            <mask id="d" fill="#fff">
                <use xlink:href="#c"/>
            </mask>
            <path fill="#7CB777" d="M35.61 4.39a27.428 27.428 0 0 1-17.33 6.131A27.428 27.428 0 0 1 .947 4.391 2.553 2.553 0 0 1 .751.597l.574-.572a27.424 27.424 0 0 0 16.954 5.83A27.424 27.424 0 0 0 35.233.026l.574.572a2.553 2.553 0 0 1-.197 3.794" mask="url(#d)"/>
        </g>
        <path fill="#D2D2D2" d="M1.895 31.554l.422-.42 2.016-2.01 2.277-2.268-3.499.783-.893.89-.893.89z"/>
        <path fill="#FD6F71" d="M33.447 27.64a27.422 27.422 0 0 1-15.168 4.544A27.423 27.423 0 0 1 3.111 27.64l12.64-12.595a3.583 3.583 0 0 1 5.056 0l12.64 12.595z"/>
        <path fill="#E34B4C" d="M4.793 28.666l13.81-13.76c.278-.278.587-.505.916-.685a3.577 3.577 0 0 0-.486-.14 3.631 3.631 0 0 0-2.225.235 3.58 3.58 0 0 0-1.056.728L3.112 27.639c.546.362 1.108.704 1.681 1.027"/>
        <path fill="#3A484A" d="M12.493 24.6a.768.768 0 0 1-.77-.768V22.79c0-.424.345-.767.77-.767.425 0 .77.343.77.767v1.043a.768.768 0 0 1-.77.767M24.065 24.6a.768.768 0 0 1-.77-.768V22.79c0-.424.345-.767.77-.767.425 0 .77.343.77.767v1.043a.768.768 0 0 1-.77.767M18.28 25.156c-.78 0-1.511-.325-2.008-.892a.765.765 0 0 1 .073-1.082.771.771 0 0 1 1.085.073c.205.233.515.367.85.367.334 0 .643-.134.848-.367a.771.771 0 0 1 1.086-.073c.32.28.353.764.073 1.082a2.663 2.663 0 0 1-2.008.892M18.479 28.414a.249.249 0 0 0-.4 0 1.389 1.389 0 0 0 0 1.655c.1.133.301.133.4 0a1.389 1.389 0 0 0 0-1.655M14.127 28.084a.249.249 0 0 0-.369-.15 1.395 1.395 0 0 0-.629 1.531c.04.16.228.237.37.15a1.395 1.395 0 0 0 .628-1.53M9.38 26.957a.248.248 0 0 0-.308-.253 1.397 1.397 0 0 0-1.058 1.276.248.248 0 0 0 .308.253 1.397 1.397 0 0 0 1.057-1.276M22.431 28.084a.249.249 0 0 1 .37-.15 1.395 1.395 0 0 1 .628 1.531.248.248 0 0 1-.37.15 1.395 1.395 0 0 1-.628-1.53M27.18 26.957a.248.248 0 0 1 .307-.253 1.397 1.397 0 0 1 1.057 1.276.248.248 0 0 1-.307.253 1.398 1.398 0 0 1-1.058-1.276"/>
        <path fill="#34915D" d="M1.325 29.419l-.287.286-.287.286a2.555 2.555 0 0 0-.58 2.724l.003.01c.137.352.354.68.65.952a2.867 2.867 0 0 1 .845-1.898l.648-.646.578-.575a27.508 27.508 0 0 1-1.57-1.14"/>
    </g>
</svg>
