<svg xmlns="http://www.w3.org/2000/svg" xmlns:xlink="http://www.w3.org/1999/xlink" width="20" height="20" viewBox="0 0 20 20">
    <defs>
        <path id="a" d="M.005.023H1.51v2.512H.005z"/>
        <path id="c" d="M.004.023H1.51v2.512H.004z"/>
        <path id="e" d="M.004.023h1.505v2.512H.004z"/>
        <path id="g" d="M.003.023h1.506v2.512H.003z"/>
    </defs>
    <g fill="none" fill-rule="evenodd">
        <path fill="#EFEDEE" d="M20 5.92v11.698a2.359 2.359 0 0 1-2.359 2.359H5.113a2.359 2.359 0 0 1-2.359-2.359V5.92H20z"/>
        <path fill="#D2D2D2" d="M2.754 17.618c0 .737.338 1.394.867 1.827h11.524c.665 0 1.297-.252 1.778-.71 1.475-1.405 2.443-3.4 3.077-5.397V5.92H2.754v11.698z"/>
        <path fill="#EFEDEE" d="M11.377 3.607L2.754 5.92S2.671 12.122.206 16.145c-.562.916.092 2.093 1.166 2.093h13.773c.352 0 .69-.135.945-.378C19.89 14.244 20 5.92 20 5.92l-8.623-2.313z"/>
        <path fill="#FD6F71" d="M20 3.654V5.92H2.754V3.654a2.358 2.358 0 0 1 2.359-2.359H17.64A2.358 2.358 0 0 1 20 3.654"/>
        <g transform="translate(5.234 .016)">
            <mask id="b" fill="#fff">
                <use xlink:href="#a"/>
            </mask>
            <path fill="#3A484A" d="M.758.023a.753.753 0 0 0-.753.753v1.006a.753.753 0 1 0 1.505 0V.776A.753.753 0 0 0 .758.023" mask="url(#b)"/>
        </g>
        <g transform="translate(8.867 .016)">
            <mask id="d" fill="#fff">
                <use xlink:href="#c"/>
            </mask>
            <path fill="#3A484A" d="M.757.023a.753.753 0 0 0-.753.753v1.006a.753.753 0 1 0 1.506 0V.776A.753.753 0 0 0 .757.023" mask="url(#d)"/>
        </g>
        <g transform="translate(12.5 .016)">
            <mask id="f" fill="#fff">
                <use xlink:href="#e"/>
            </mask>
            <path fill="#3A484A" d="M.756.023a.753.753 0 0 0-.752.753v1.006a.753.753 0 1 0 1.505 0V.776A.753.753 0 0 0 .756.023" mask="url(#f)"/>
        </g>
        <g transform="translate(16.133 .016)">
            <mask id="h" fill="#fff">
                <use xlink:href="#g"/>
            </mask>
            <path fill="#3A484A" d="M.756.023a.753.753 0 0 0-.753.753v1.006a.753.753 0 1 0 1.506 0V.776A.753.753 0 0 0 .756.023" mask="url(#h)"/>
        </g>
        <path fill="#FD6F71" d="M9.702 16.64c10.15-5.319 3.815-11.408 0-7.68-3.815-3.728-10.149 2.361 0 7.68"/>
        <path fill="#3A484A" d="M7.079 12.198a.302.302 0 0 1-.302-.302v-.475a.302.302 0 0 1 .603 0v.475a.302.302 0 0 1-.301.302M12.326 12.198a.302.302 0 0 1-.302-.302v-.475a.302.302 0 0 1 .604 0v.475a.302.302 0 0 1-.302.302M9.702 12.45c-.34 0-.658-.141-.875-.389a.302.302 0 1 1 .455-.397.554.554 0 0 0 .42.183.555.555 0 0 0 .42-.183.302.302 0 1 1 .455.397c-.216.248-.535.39-.875.39"/>
    </g>
</svg>
