<svg xmlns="http://www.w3.org/2000/svg" xmlns:xlink="http://www.w3.org/1999/xlink" width="24" height="20" viewBox="0 0 24 20">
    <defs>
        <path id="a" d="M.017.017H5.95v9.845H.017z"/>
        <path id="c" d="M.01.005h12.546V10.59H.01z"/>
        <path id="e" d="M0 .03h24V3.13H0z"/>
    </defs>
    <g fill="none" fill-rule="evenodd">
        <path fill="#D65B5B" d="M3.782 4.53a2.423 2.423 0 0 1 2.412 2.433 2.423 2.423 0 0 1-2.412 2.433 2.423 2.423 0 0 1-2.413-2.433 2.423 2.423 0 0 1 2.413-2.434"/>
        <path fill="#BF4C4C" d="M3.781 4.53c-.118 0-.234.008-.348.025-.648 1.101-1.116 2.701-.426 4.712.243.083.503.13.774.13a2.423 2.423 0 0 0 2.413-2.434 2.423 2.423 0 0 0-2.413-2.434"/>
        <path fill="#FFDE55" d="M10.464 6.4l-1.01-1.019a1.213 1.213 0 0 1 0-1.704l1.01-1.02a1.188 1.188 0 0 1 1.69 0l1.01 1.02c.467.47.467 1.234 0 1.704l-1.01 1.02c-.467.47-1.224.47-1.69 0"/>
        <path fill="#FFEB99" d="M7.186 6.4l-1.01-1.019a1.213 1.213 0 0 1 0-1.704l1.01-1.02a1.188 1.188 0 0 1 1.69 0l1.01 1.02c.467.47.467 1.234 0 1.704l-1.01 1.02c-.467.47-1.224.47-1.69 0"/>
        <path fill="#F46262" d="M6.455 4.53a2.423 2.423 0 0 1 2.413 2.433 2.423 2.423 0 0 1-2.413 2.433 2.423 2.423 0 0 1-2.412-2.433 2.423 2.423 0 0 1 2.412-2.434"/>
        <path fill="#92DD7A" d="M7.57 5.931c1.31-1.833 3.522-2.483 4.94-1.452 1.419 1.031 1.507 3.353.196 5.187-1.31 1.833-3.522 2.483-4.94 1.452-1.418-1.03-1.506-3.353-.196-5.187"/>
        <path fill="#7EC66A" d="M12.512 4.48c-.596-.432-1.331-.568-2.081-.445-1.057 1.33-1.8 3.624-1.044 7.574 1.173-.023 2.447-.719 3.32-1.941 1.31-1.834 1.223-4.156-.195-5.187"/>
        <path fill="#B1EF97" d="M21.457 5.847a3.441 3.441 0 0 0-1.857-.848c-.757-.097-1.467-.414-2.083-.869a3.433 3.433 0 0 0-2.07-.673C13.526 3.47 12 5.087 12 7.022c0 4.192 8.773 5.136 9.952 3.528 1.064-1.45.847-3.511-.496-4.703"/>
        <g transform="translate(17.297 .03)">
            <mask id="b" fill="#fff">
                <use xlink:href="#a"/>
            </mask>
            <path fill="#EAEAEA" d="M.624 9.748A1.11 1.11 0 0 1 .13 8.272L3.88.63A1.09 1.09 0 0 1 5.343.13c.538.269.76.933.494 1.476l-3.75 7.642a1.09 1.09 0 0 1-1.463.499" mask="url(#b)"/>
        </g>
        <path fill="#92D8FF" d="M22.587 9.396H1.413s-.182 1.594.194 3.564a8.633 8.633 0 0 0 8.47 7.022h3.847a8.633 8.633 0 0 0 8.47-7.022c.375-1.97.193-3.564.193-3.564"/>
        <g transform="translate(1.36 9.391)">
            <mask id="d" fill="#fff">
                <use xlink:href="#c"/>
            </mask>
            <path fill="#72CEF7" d="M.247 3.568a8.633 8.633 0 0 0 8.47 7.023h1.854c-1.334-.747-2.174-1.733-2.698-2.742-1.033-1.99-.064-4.452 2.038-5.192 1.582-.556 2.643-1.372 2.643-1.372l.002-1.28H.053s-.181 1.593.194 3.563" mask="url(#d)"/>
        </g>
        <g transform="translate(0 7.548)">
            <mask id="f" fill="#fff">
                <use xlink:href="#e"/>
            </mask>
            <path fill="#FFEB99" d="M22.464 3.129H1.536A1.547 1.547 0 0 1 0 1.579C0 .729.691.03 1.536.03h20.928C23.31.03 24 .728 24 1.58c0 .852-.691 1.549-1.536 1.549" mask="url(#f)"/>
        </g>
        <path fill="#FFDE55" d="M6.455 9.127c0-.852.691-1.55 1.536-1.55H1.536C.691 7.578 0 8.276 0 9.128c0 .852.691 1.55 1.536 1.55h6.455a1.547 1.547 0 0 1-1.536-1.55"/>
        <path fill="#57565C" d="M14.056 15.937c-.75 0-1.357-.613-1.357-1.369v-.995c0-.206.166-.373.37-.373h1.974c.204 0 .37.167.37.373v.995c0 .756-.608 1.369-1.357 1.369"/>
        <path fill="#FFA6BB" d="M9.517 13.406c.8 0 1.447.52 1.447 1.162 0 .642-.648 1.163-1.447 1.163-.8 0-1.447-.52-1.447-1.163 0-.642.648-1.162 1.447-1.162M18.595 13.406c.8 0 1.447.52 1.447 1.162 0 .642-.648 1.163-1.447 1.163-.8 0-1.447-.52-1.447-1.163 0-.642.648-1.162 1.447-1.162"/>
        <path fill="#57565C" d="M17.95 13.93a.364.364 0 0 1-.361-.365v-.607c0-.201.162-.365.362-.365.2 0 .362.164.362.365v.607a.364.364 0 0 1-.362.365M10.161 13.93a.364.364 0 0 1-.362-.365v-.607c0-.201.162-.365.362-.365.2 0 .362.164.362.365v.607a.364.364 0 0 1-.362.365"/>
    </g>
</svg>
